<mxfile host="app.diagrams.net" modified="2023-07-18T05:25:52.251Z" agent="Mozilla/5.0 (Windows NT 10.0; Win64; x64; rv:109.0) Gecko/20100101 Firefox/114.0" version="21.6.2" etag="FnAwgUroQyFYQ1Lc3y-2" type="github">
  <diagram name="第 1 页" id="b7-4zoPX1y4syaNVh3g7">
    <mxGraphModel>
      <root>
        <mxCell id="0" />
        <mxCell id="1" parent="0" />
      </root>
    </mxGraphModel>
  </diagram>
</mxfile>
